<svg id="Capa_1" data-name="Capa 1" xmlns="http://www.w3.org/2000/svg" xmlns:xlink="http://www.w3.org/1999/xlink" viewBox="0 0 1399.2 1033.72"><defs><style>.cls-1,.cls-10,.cls-11,.cls-12,.cls-13,.cls-14,.cls-15,.cls-16,.cls-17,.cls-18,.cls-19,.cls-2,.cls-20,.cls-21,.cls-22,.cls-23,.cls-24,.cls-25,.cls-26,.cls-27,.cls-28,.cls-29,.cls-3,.cls-30,.cls-31,.cls-32,.cls-33,.cls-34,.cls-35,.cls-36,.cls-37,.cls-38,.cls-39,.cls-4,.cls-40,.cls-41,.cls-42,.cls-43,.cls-44,.cls-45,.cls-46,.cls-47,.cls-48,.cls-49,.cls-5,.cls-50,.cls-51,.cls-52,.cls-53,.cls-54,.cls-55,.cls-56,.cls-57,.cls-58,.cls-59,.cls-6,.cls-60,.cls-61,.cls-62,.cls-63,.cls-64,.cls-65,.cls-66,.cls-67,.cls-68,.cls-69,.cls-7,.cls-70,.cls-71,.cls-72,.cls-73,.cls-74,.cls-75,.cls-76,.cls-77,.cls-78,.cls-79,.cls-8,.cls-80,.cls-81,.cls-82,.cls-83,.cls-84,.cls-85,.cls-86,.cls-87,.cls-88,.cls-89,.cls-9,.cls-90,.cls-91,.cls-92,.cls-93,.cls-94,.cls-95,.cls-96,.cls-97,.cls-98,.cls-99{fill:none;stroke-width:3px;}.cls-1,.cls-10,.cls-11,.cls-12,.cls-13,.cls-14,.cls-15,.cls-16,.cls-17,.cls-18,.cls-19,.cls-2,.cls-20,.cls-21,.cls-22,.cls-23,.cls-24,.cls-25,.cls-26,.cls-27,.cls-28,.cls-29,.cls-3,.cls-30,.cls-31,.cls-32,.cls-33,.cls-34,.cls-35,.cls-36,.cls-37,.cls-38,.cls-39,.cls-4,.cls-40,.cls-41,.cls-42,.cls-43,.cls-44,.cls-45,.cls-46,.cls-47,.cls-48,.cls-49,.cls-5,.cls-50,.cls-51,.cls-52,.cls-53,.cls-54,.cls-55,.cls-56,.cls-57,.cls-58,.cls-59,.cls-6,.cls-60,.cls-61,.cls-62,.cls-63,.cls-64,.cls-65,.cls-66,.cls-67,.cls-68,.cls-69,.cls-7,.cls-70,.cls-71,.cls-72,.cls-73,.cls-74,.cls-75,.cls-76,.cls-77,.cls-78,.cls-79,.cls-8,.cls-80,.cls-81,.cls-82,.cls-83,.cls-84,.cls-85,.cls-86,.cls-87,.cls-89,.cls-9,.cls-90,.cls-91,.cls-92,.cls-93,.cls-94,.cls-95,.cls-96,.cls-97,.cls-98,.cls-99{stroke-opacity:0.15;}.cls-1{opacity:0.01;stroke:url(#Degradado_sin_nombre_99);}.cls-1,.cls-10,.cls-11,.cls-12,.cls-13,.cls-14,.cls-15,.cls-16,.cls-17,.cls-18,.cls-19,.cls-2,.cls-20,.cls-21,.cls-22,.cls-23,.cls-24,.cls-25,.cls-26,.cls-27,.cls-28,.cls-29,.cls-3,.cls-30,.cls-31,.cls-32,.cls-33,.cls-34,.cls-35,.cls-36,.cls-37,.cls-38,.cls-39,.cls-4,.cls-40,.cls-41,.cls-42,.cls-43,.cls-44,.cls-45,.cls-46,.cls-47,.cls-48,.cls-49,.cls-5,.cls-50,.cls-51,.cls-52,.cls-53,.cls-54,.cls-55,.cls-56,.cls-57,.cls-58,.cls-59,.cls-6,.cls-60,.cls-61,.cls-62,.cls-63,.cls-64,.cls-65,.cls-66,.cls-67,.cls-68,.cls-69,.cls-7,.cls-70,.cls-71,.cls-72,.cls-73,.cls-74,.cls-75,.cls-76,.cls-77,.cls-78,.cls-79,.cls-8,.cls-80,.cls-81,.cls-82,.cls-83,.cls-84,.cls-85,.cls-86,.cls-87,.cls-88,.cls-89,.cls-9,.cls-90,.cls-91,.cls-92,.cls-93,.cls-94,.cls-95,.cls-96,.cls-97,.cls-98{isolation:isolate;}.cls-2{opacity:0.02;stroke:url(#Degradado_sin_nombre_99-2);}.cls-3{opacity:0.03;stroke:url(#Degradado_sin_nombre_99-3);}.cls-4{opacity:0.04;stroke:url(#Degradado_sin_nombre_99-4);}.cls-5{opacity:0.05;stroke:url(#Degradado_sin_nombre_99-5);}.cls-6{opacity:0.06;stroke:url(#Degradado_sin_nombre_99-6);}.cls-7{opacity:0.07;stroke:url(#Degradado_sin_nombre_99-7);}.cls-8{opacity:0.08;stroke:url(#Degradado_sin_nombre_99-8);}.cls-9{opacity:0.09;stroke:url(#Degradado_sin_nombre_99-9);}.cls-10{opacity:0.1;stroke:url(#Degradado_sin_nombre_99-10);}.cls-11{opacity:0.11;stroke:url(#Degradado_sin_nombre_99-11);}.cls-12{opacity:0.12;stroke:url(#Degradado_sin_nombre_99-12);}.cls-13{opacity:0.13;stroke:url(#Degradado_sin_nombre_99-13);}.cls-14{opacity:0.14;stroke:url(#Degradado_sin_nombre_99-14);}.cls-15{opacity:0.15;stroke:url(#Degradado_sin_nombre_99-15);}.cls-16{opacity:0.16;stroke:url(#Degradado_sin_nombre_99-16);}.cls-17{opacity:0.17;stroke:url(#Degradado_sin_nombre_99-17);}.cls-18{opacity:0.18;stroke:url(#Degradado_sin_nombre_99-18);}.cls-19{opacity:0.19;stroke:url(#Degradado_sin_nombre_99-19);}.cls-20{opacity:0.2;stroke:url(#Degradado_sin_nombre_99-20);}.cls-21{opacity:0.21;stroke:url(#Degradado_sin_nombre_99-21);}.cls-22{opacity:0.22;stroke:url(#Degradado_sin_nombre_99-22);}.cls-23{opacity:0.23;stroke:url(#Degradado_sin_nombre_99-23);}.cls-24{opacity:0.24;stroke:url(#Degradado_sin_nombre_99-24);}.cls-25{opacity:0.25;stroke:url(#Degradado_sin_nombre_99-25);}.cls-26{opacity:0.26;stroke:url(#Degradado_sin_nombre_99-26);}.cls-27{opacity:0.27;stroke:url(#Degradado_sin_nombre_99-27);}.cls-28{opacity:0.28;stroke:url(#Degradado_sin_nombre_99-28);}.cls-29{opacity:0.29;stroke:url(#Degradado_sin_nombre_99-29);}.cls-30{opacity:0.3;stroke:url(#Degradado_sin_nombre_99-30);}.cls-31{opacity:0.31;stroke:url(#Degradado_sin_nombre_99-31);}.cls-32{opacity:0.32;stroke:url(#Degradado_sin_nombre_99-32);}.cls-33{opacity:0.33;stroke:url(#Degradado_sin_nombre_99-33);}.cls-34{opacity:0.34;stroke:url(#Degradado_sin_nombre_99-34);}.cls-35{opacity:0.35;stroke:url(#Degradado_sin_nombre_99-35);}.cls-36{opacity:0.36;stroke:url(#Degradado_sin_nombre_99-36);}.cls-37{opacity:0.37;stroke:url(#Degradado_sin_nombre_99-37);}.cls-38{opacity:0.38;stroke:url(#Degradado_sin_nombre_99-38);}.cls-39{opacity:0.39;stroke:url(#Degradado_sin_nombre_99-39);}.cls-40{opacity:0.4;stroke:url(#Degradado_sin_nombre_99-40);}.cls-41{opacity:0.41;stroke:url(#Degradado_sin_nombre_99-41);}.cls-42{opacity:0.42;stroke:url(#Degradado_sin_nombre_99-42);}.cls-43{opacity:0.43;stroke:url(#Degradado_sin_nombre_99-43);}.cls-44{opacity:0.44;stroke:url(#Degradado_sin_nombre_99-44);}.cls-45{opacity:0.45;stroke:url(#Degradado_sin_nombre_99-45);}.cls-46{opacity:0.46;stroke:url(#Degradado_sin_nombre_99-46);}.cls-47{opacity:0.47;stroke:url(#Degradado_sin_nombre_99-47);}.cls-48{opacity:0.48;stroke:url(#Degradado_sin_nombre_99-48);}.cls-49{opacity:0.49;stroke:url(#Degradado_sin_nombre_99-49);}.cls-50{opacity:0.51;stroke:url(#Degradado_sin_nombre_99-50);}.cls-51{opacity:0.52;stroke:url(#Degradado_sin_nombre_99-51);}.cls-52{opacity:0.53;stroke:url(#Degradado_sin_nombre_99-52);}.cls-53{opacity:0.54;stroke:url(#Degradado_sin_nombre_99-53);}.cls-54{opacity:0.55;stroke:url(#Degradado_sin_nombre_99-54);}.cls-55{opacity:0.56;stroke:url(#Degradado_sin_nombre_99-55);}.cls-56{opacity:0.57;stroke:url(#Degradado_sin_nombre_99-56);}.cls-57{opacity:0.58;stroke:url(#Degradado_sin_nombre_99-57);}.cls-58{opacity:0.59;stroke:url(#Degradado_sin_nombre_99-58);}.cls-59{opacity:0.6;stroke:url(#Degradado_sin_nombre_99-59);}.cls-60{opacity:0.61;stroke:url(#Degradado_sin_nombre_99-60);}.cls-61{opacity:0.62;stroke:url(#Degradado_sin_nombre_99-61);}.cls-62{opacity:0.63;stroke:url(#Degradado_sin_nombre_99-62);}.cls-63{opacity:0.64;stroke:url(#Degradado_sin_nombre_99-63);}.cls-64{opacity:0.65;stroke:url(#Degradado_sin_nombre_99-64);}.cls-65{opacity:0.66;stroke:url(#Degradado_sin_nombre_99-65);}.cls-66{opacity:0.67;stroke:url(#Degradado_sin_nombre_99-66);}.cls-67{opacity:0.68;stroke:url(#Degradado_sin_nombre_99-67);}.cls-68{opacity:0.69;stroke:url(#Degradado_sin_nombre_99-68);}.cls-69{opacity:0.7;stroke:url(#Degradado_sin_nombre_99-69);}.cls-70{opacity:0.71;stroke:url(#Degradado_sin_nombre_99-70);}.cls-71{opacity:0.72;stroke:url(#Degradado_sin_nombre_99-71);}.cls-72{opacity:0.73;stroke:url(#Degradado_sin_nombre_99-72);}.cls-73{opacity:0.74;stroke:url(#Degradado_sin_nombre_99-73);}.cls-74{opacity:0.75;stroke:url(#Degradado_sin_nombre_99-74);}.cls-75{opacity:0.76;stroke:url(#Degradado_sin_nombre_99-75);}.cls-76{opacity:0.77;stroke:url(#Degradado_sin_nombre_99-76);}.cls-77{opacity:0.78;stroke:url(#Degradado_sin_nombre_99-77);}.cls-78{opacity:0.79;stroke:url(#Degradado_sin_nombre_99-78);}.cls-79{opacity:0.8;stroke:url(#Degradado_sin_nombre_99-79);}.cls-80{opacity:0.81;stroke:url(#Degradado_sin_nombre_99-80);}.cls-81{opacity:0.82;stroke:url(#Degradado_sin_nombre_99-81);}.cls-82{opacity:0.83;stroke:url(#Degradado_sin_nombre_99-82);}.cls-83{opacity:0.84;stroke:url(#Degradado_sin_nombre_99-83);}.cls-84{opacity:0.85;stroke:url(#Degradado_sin_nombre_99-84);}.cls-85{opacity:0.86;stroke:url(#Degradado_sin_nombre_99-85);}.cls-86{opacity:0.87;stroke:url(#Degradado_sin_nombre_99-86);}.cls-87{opacity:0.88;stroke:url(#Degradado_sin_nombre_99-87);}.cls-88{opacity:0.89;stroke:url(#Degradado_sin_nombre_99-88);}.cls-89{opacity:0.9;stroke:url(#Degradado_sin_nombre_99-89);}.cls-90{opacity:0.91;stroke:url(#Degradado_sin_nombre_99-90);}.cls-91{opacity:0.92;stroke:url(#Degradado_sin_nombre_99-91);}.cls-92{opacity:0.93;stroke:url(#Degradado_sin_nombre_99-92);}.cls-93{opacity:0.94;stroke:url(#Degradado_sin_nombre_99-93);}.cls-94{opacity:0.95;stroke:url(#Degradado_sin_nombre_99-94);}.cls-95{opacity:0.96;stroke:url(#Degradado_sin_nombre_99-95);}.cls-96{opacity:0.97;stroke:url(#Degradado_sin_nombre_99-96);}.cls-97{opacity:0.98;stroke:url(#Degradado_sin_nombre_99-97);}.cls-98{opacity:0.99;stroke:url(#Degradado_sin_nombre_99-98);}.cls-99{stroke:url(#Degradado_sin_nombre_99-99);}</style><linearGradient id="Degradado_sin_nombre_99" x1="570.85" y1="547.93" x2="485.97" y2="1151.96" gradientTransform="matrix(1, 0, 0, -1, 539.1, 1324.4)" gradientUnits="userSpaceOnUse"><stop offset="0" stop-color="#0169fe"/><stop offset="1" stop-color="#00f0ff" stop-opacity="0.8"/></linearGradient><linearGradient id="Degradado_sin_nombre_99-2" x1="559.98" y1="546.75" x2="485.78" y2="1151.07" xlink:href="#Degradado_sin_nombre_99"/><linearGradient id="Degradado_sin_nombre_99-3" x1="549.13" y1="545.66" x2="485.6" y2="1150.07" xlink:href="#Degradado_sin_nombre_99"/><linearGradient id="Degradado_sin_nombre_99-4" x1="538.3" y1="544.66" x2="485.43" y2="1148.98" xlink:href="#Degradado_sin_nombre_99"/><linearGradient id="Degradado_sin_nombre_99-5" x1="527.5" y1="543.75" x2="485.26" y2="1147.79" xlink:href="#Degradado_sin_nombre_99"/><linearGradient id="Degradado_sin_nombre_99-6" x1="516.73" y1="542.93" x2="485.1" y2="1146.5" xlink:href="#Degradado_sin_nombre_99"/><linearGradient id="Degradado_sin_nombre_99-7" x1="505.98" y1="542.2" x2="484.93" y2="1145.12" xlink:href="#Degradado_sin_nombre_99"/><linearGradient id="Degradado_sin_nombre_99-8" x1="495.27" y1="541.55" x2="484.76" y2="1143.64" xlink:href="#Degradado_sin_nombre_99"/><linearGradient id="Degradado_sin_nombre_99-9" x1="484.59" y1="541" x2="484.59" y2="1142.06" xlink:href="#Degradado_sin_nombre_99"/><linearGradient id="Degradado_sin_nombre_99-10" x1="473.94" y1="540.53" x2="484.41" y2="1140.39" xlink:href="#Degradado_sin_nombre_99"/><linearGradient id="Degradado_sin_nombre_99-11" x1="463.32" y1="540.14" x2="484.22" y2="1138.62" xlink:href="#Degradado_sin_nombre_99"/><linearGradient id="Degradado_sin_nombre_99-12" x1="452.74" y1="539.84" x2="484.03" y2="1136.75" xlink:href="#Degradado_sin_nombre_99"/><linearGradient id="Degradado_sin_nombre_99-13" x1="442.2" y1="539.63" x2="483.82" y2="1134.79" xlink:href="#Degradado_sin_nombre_99"/><linearGradient id="Degradado_sin_nombre_99-14" x1="431.7" y1="539.49" x2="483.6" y2="1132.74" xlink:href="#Degradado_sin_nombre_99"/><linearGradient id="Degradado_sin_nombre_99-15" x1="421.24" y1="539.45" x2="483.37" y2="1130.59" xlink:href="#Degradado_sin_nombre_99"/><linearGradient id="Degradado_sin_nombre_99-16" x1="410.82" y1="539.48" x2="483.12" y2="1128.34" xlink:href="#Degradado_sin_nombre_99"/><linearGradient id="Degradado_sin_nombre_99-17" x1="400.44" y1="539.59" x2="482.86" y2="1126" xlink:href="#Degradado_sin_nombre_99"/><linearGradient id="Degradado_sin_nombre_99-18" x1="390.11" y1="539.79" x2="482.57" y2="1123.57" xlink:href="#Degradado_sin_nombre_99"/><linearGradient id="Degradado_sin_nombre_99-19" x1="379.82" y1="540.06" x2="482.27" y2="1121.04" xlink:href="#Degradado_sin_nombre_99"/><linearGradient id="Degradado_sin_nombre_99-20" x1="369.58" y1="540.42" x2="481.94" y2="1118.43" xlink:href="#Degradado_sin_nombre_99"/><linearGradient id="Degradado_sin_nombre_99-21" x1="359.39" y1="540.84" x2="481.59" y2="1115.72" xlink:href="#Degradado_sin_nombre_99"/><linearGradient id="Degradado_sin_nombre_99-22" x1="349.25" y1="541.35" x2="481.21" y2="1112.92" xlink:href="#Degradado_sin_nombre_99"/><linearGradient id="Degradado_sin_nombre_99-23" x1="339.16" y1="541.92" x2="480.8" y2="1110.03" xlink:href="#Degradado_sin_nombre_99"/><linearGradient id="Degradado_sin_nombre_99-24" x1="329.12" y1="542.58" x2="480.37" y2="1107.05" xlink:href="#Degradado_sin_nombre_99"/><linearGradient id="Degradado_sin_nombre_99-25" x1="319.14" y1="543.3" x2="479.91" y2="1103.98" xlink:href="#Degradado_sin_nombre_99"/><linearGradient id="Degradado_sin_nombre_99-26" x1="309.21" y1="544.11" x2="479.41" y2="1100.83" xlink:href="#Degradado_sin_nombre_99"/><linearGradient id="Degradado_sin_nombre_99-27" x1="299.33" y1="544.97" x2="478.89" y2="1097.58" xlink:href="#Degradado_sin_nombre_99"/><linearGradient id="Degradado_sin_nombre_99-28" x1="289.52" y1="545.91" x2="478.33" y2="1094.25" xlink:href="#Degradado_sin_nombre_99"/><linearGradient id="Degradado_sin_nombre_99-29" x1="279.76" y1="546.92" x2="477.73" y2="1090.83" xlink:href="#Degradado_sin_nombre_99"/><linearGradient id="Degradado_sin_nombre_99-30" x1="270.06" y1="547.99" x2="477.09" y2="1087.33" xlink:href="#Degradado_sin_nombre_99"/><linearGradient id="Degradado_sin_nombre_99-31" x1="260.42" y1="549.12" x2="476.42" y2="1083.74" xlink:href="#Degradado_sin_nombre_99"/><linearGradient id="Degradado_sin_nombre_99-32" x1="250.84" y1="550.33" x2="475.7" y2="1080.07" xlink:href="#Degradado_sin_nombre_99"/><linearGradient id="Degradado_sin_nombre_99-33" x1="241.33" y1="551.6" x2="474.95" y2="1076.32" xlink:href="#Degradado_sin_nombre_99"/><linearGradient id="Degradado_sin_nombre_99-34" x1="231.87" y1="552.93" x2="474.15" y2="1072.48" xlink:href="#Degradado_sin_nombre_99"/><linearGradient id="Degradado_sin_nombre_99-35" x1="222.49" y1="554.32" x2="473.3" y2="1068.57" xlink:href="#Degradado_sin_nombre_99"/><linearGradient id="Degradado_sin_nombre_99-36" x1="213.16" y1="555.77" x2="472.41" y2="1064.57" xlink:href="#Degradado_sin_nombre_99"/><linearGradient id="Degradado_sin_nombre_99-37" x1="203.91" y1="557.28" x2="471.47" y2="1060.5" xlink:href="#Degradado_sin_nombre_99"/><linearGradient id="Degradado_sin_nombre_99-38" x1="194.72" y1="558.85" x2="470.49" y2="1056.34" xlink:href="#Degradado_sin_nombre_99"/><linearGradient id="Degradado_sin_nombre_99-39" x1="185.6" y1="560.47" x2="469.45" y2="1052.11" xlink:href="#Degradado_sin_nombre_99"/><linearGradient id="Degradado_sin_nombre_99-40" x1="176.55" y1="562.15" x2="468.36" y2="1047.81" xlink:href="#Degradado_sin_nombre_99"/><linearGradient id="Degradado_sin_nombre_99-41" x1="167.56" y1="563.88" x2="467.22" y2="1043.43" xlink:href="#Degradado_sin_nombre_99"/><linearGradient id="Degradado_sin_nombre_99-42" x1="158.65" y1="565.66" x2="466.03" y2="1038.98" xlink:href="#Degradado_sin_nombre_99"/><linearGradient id="Degradado_sin_nombre_99-43" x1="149.81" y1="567.5" x2="464.78" y2="1034.45" xlink:href="#Degradado_sin_nombre_99"/><linearGradient id="Degradado_sin_nombre_99-44" x1="141.04" y1="569.38" x2="463.47" y2="1029.85" xlink:href="#Degradado_sin_nombre_99"/><linearGradient id="Degradado_sin_nombre_99-45" x1="132.35" y1="571.31" x2="462.11" y2="1025.19" xlink:href="#Degradado_sin_nombre_99"/><linearGradient id="Degradado_sin_nombre_99-46" x1="123.72" y1="573.28" x2="460.69" y2="1020.45" xlink:href="#Degradado_sin_nombre_99"/><linearGradient id="Degradado_sin_nombre_99-47" x1="115.18" y1="575.3" x2="459.21" y2="1015.65" xlink:href="#Degradado_sin_nombre_99"/><linearGradient id="Degradado_sin_nombre_99-48" x1="106.7" y1="577.37" x2="457.67" y2="1010.77" xlink:href="#Degradado_sin_nombre_99"/><linearGradient id="Degradado_sin_nombre_99-49" x1="98.31" y1="579.48" x2="456.07" y2="1005.84" xlink:href="#Degradado_sin_nombre_99"/><linearGradient id="Degradado_sin_nombre_99-50" x1="89.98" y1="581.62" x2="454.4" y2="1000.84" xlink:href="#Degradado_sin_nombre_99"/><linearGradient id="Degradado_sin_nombre_99-51" x1="81.74" y1="583.8" x2="452.67" y2="995.77" xlink:href="#Degradado_sin_nombre_99"/><linearGradient id="Degradado_sin_nombre_99-52" x1="73.57" y1="586.03" x2="450.88" y2="990.65" xlink:href="#Degradado_sin_nombre_99"/><linearGradient id="Degradado_sin_nombre_99-53" x1="65.48" y1="588.29" x2="449.02" y2="985.46" xlink:href="#Degradado_sin_nombre_99"/><linearGradient id="Degradado_sin_nombre_99-54" x1="57.47" y1="590.59" x2="447.1" y2="980.22" xlink:href="#Degradado_sin_nombre_99"/><linearGradient id="Degradado_sin_nombre_99-55" x1="49.53" y1="592.92" x2="445.1" y2="974.92" xlink:href="#Degradado_sin_nombre_99"/><linearGradient id="Degradado_sin_nombre_99-56" x1="41.68" y1="595.28" x2="443.05" y2="969.55" xlink:href="#Degradado_sin_nombre_99"/><linearGradient id="Degradado_sin_nombre_99-57" x1="33.91" y1="597.67" x2="440.91" y2="964.14" xlink:href="#Degradado_sin_nombre_99"/><linearGradient id="Degradado_sin_nombre_99-58" x1="26.21" y1="600.09" x2="438.71" y2="958.67" xlink:href="#Degradado_sin_nombre_99"/><linearGradient id="Degradado_sin_nombre_99-59" x1="18.6" y1="602.54" x2="436.44" y2="953.15" xlink:href="#Degradado_sin_nombre_99"/><linearGradient id="Degradado_sin_nombre_99-60" x1="11.06" y1="605.01" x2="434.1" y2="947.58" xlink:href="#Degradado_sin_nombre_99"/><linearGradient id="Degradado_sin_nombre_99-61" x1="3.61" y1="607.51" x2="431.68" y2="941.96" xlink:href="#Degradado_sin_nombre_99"/><linearGradient id="Degradado_sin_nombre_99-62" x1="-3.76" y1="610.03" x2="429.2" y2="936.29" xlink:href="#Degradado_sin_nombre_99"/><linearGradient id="Degradado_sin_nombre_99-63" x1="-11.06" y1="612.57" x2="426.63" y2="930.57" xlink:href="#Degradado_sin_nombre_99"/><linearGradient id="Degradado_sin_nombre_99-64" x1="-18.27" y1="615.13" x2="423.99" y2="924.81" xlink:href="#Degradado_sin_nombre_99"/><linearGradient id="Degradado_sin_nombre_99-65" x1="-25.39" y1="617.71" x2="421.28" y2="919" xlink:href="#Degradado_sin_nombre_99"/><linearGradient id="Degradado_sin_nombre_99-66" x1="-32.44" y1="620.32" x2="418.49" y2="913.15" xlink:href="#Degradado_sin_nombre_99"/><linearGradient id="Degradado_sin_nombre_99-67" x1="-39.4" y1="622.93" x2="415.63" y2="907.26" xlink:href="#Degradado_sin_nombre_99"/><linearGradient id="Degradado_sin_nombre_99-68" x1="-46.28" y1="625.56" x2="412.69" y2="901.33" xlink:href="#Degradado_sin_nombre_99"/><linearGradient id="Degradado_sin_nombre_99-69" x1="-53.08" y1="628.2" x2="409.67" y2="895.37" xlink:href="#Degradado_sin_nombre_99"/><linearGradient id="Degradado_sin_nombre_99-70" x1="-59.8" y1="630.85" x2="406.57" y2="889.36" xlink:href="#Degradado_sin_nombre_99"/><linearGradient id="Degradado_sin_nombre_99-71" x1="-66.44" y1="633.51" x2="403.39" y2="883.32" xlink:href="#Degradado_sin_nombre_99"/><linearGradient id="Degradado_sin_nombre_99-72" x1="-72.99" y1="636.18" x2="400.13" y2="877.25" xlink:href="#Degradado_sin_nombre_99"/><linearGradient id="Degradado_sin_nombre_99-73" x1="-79.46" y1="638.85" x2="396.8" y2="871.14" xlink:href="#Degradado_sin_nombre_99"/><linearGradient id="Degradado_sin_nombre_99-74" x1="-85.85" y1="641.53" x2="393.38" y2="865.01" xlink:href="#Degradado_sin_nombre_99"/><linearGradient id="Degradado_sin_nombre_99-75" x1="-92.16" y1="644.22" x2="389.89" y2="858.84" xlink:href="#Degradado_sin_nombre_99"/><linearGradient id="Degradado_sin_nombre_99-76" x1="-98.38" y1="646.9" x2="386.31" y2="852.65" xlink:href="#Degradado_sin_nombre_99"/><linearGradient id="Degradado_sin_nombre_99-77" x1="-104.52" y1="649.59" x2="382.66" y2="846.42" xlink:href="#Degradado_sin_nombre_99"/><linearGradient id="Degradado_sin_nombre_99-78" x1="-110.59" y1="652.28" x2="378.92" y2="840.18" xlink:href="#Degradado_sin_nombre_99"/><linearGradient id="Degradado_sin_nombre_99-79" x1="-116.56" y1="654.96" x2="375.1" y2="833.91" xlink:href="#Degradado_sin_nombre_99"/><linearGradient id="Degradado_sin_nombre_99-80" x1="-122.46" y1="657.64" x2="371.19" y2="827.63" xlink:href="#Degradado_sin_nombre_99"/><linearGradient id="Degradado_sin_nombre_99-81" x1="-128.28" y1="660.32" x2="367.21" y2="821.31" xlink:href="#Degradado_sin_nombre_99"/><linearGradient id="Degradado_sin_nombre_99-82" x1="-134.02" y1="662.99" x2="363.14" y2="814.98" xlink:href="#Degradado_sin_nombre_99"/><linearGradient id="Degradado_sin_nombre_99-83" x1="-139.67" y1="665.65" x2="359" y2="808.64" xlink:href="#Degradado_sin_nombre_99"/><linearGradient id="Degradado_sin_nombre_99-84" x1="-145.25" y1="668.3" x2="354.77" y2="802.28" xlink:href="#Degradado_sin_nombre_99"/><linearGradient id="Degradado_sin_nombre_99-85" x1="-150.74" y1="670.94" x2="350.45" y2="795.9" xlink:href="#Degradado_sin_nombre_99"/><linearGradient id="Degradado_sin_nombre_99-86" x1="-156.16" y1="673.57" x2="346.06" y2="789.52" xlink:href="#Degradado_sin_nombre_99"/><linearGradient id="Degradado_sin_nombre_99-87" x1="-161.5" y1="676.18" x2="341.58" y2="783.11" xlink:href="#Degradado_sin_nombre_99"/><linearGradient id="Degradado_sin_nombre_99-88" x1="-166.76" y1="678.78" x2="337.02" y2="776.7" xlink:href="#Degradado_sin_nombre_99"/><linearGradient id="Degradado_sin_nombre_99-89" x1="-171.94" y1="681.36" x2="332.38" y2="770.28" xlink:href="#Degradado_sin_nombre_99"/><linearGradient id="Degradado_sin_nombre_99-90" x1="-177.04" y1="683.92" x2="327.64" y2="763.86" xlink:href="#Degradado_sin_nombre_99"/><linearGradient id="Degradado_sin_nombre_99-91" x1="-182.07" y1="686.47" x2="322.84" y2="757.43" xlink:href="#Degradado_sin_nombre_99"/><linearGradient id="Degradado_sin_nombre_99-92" x1="-187.02" y1="688.99" x2="317.95" y2="751" xlink:href="#Degradado_sin_nombre_99"/><linearGradient id="Degradado_sin_nombre_99-93" x1="-191.9" y1="691.5" x2="312.97" y2="744.56" xlink:href="#Degradado_sin_nombre_99"/><linearGradient id="Degradado_sin_nombre_99-94" x1="-196.69" y1="693.98" x2="307.91" y2="738.12" xlink:href="#Degradado_sin_nombre_99"/><linearGradient id="Degradado_sin_nombre_99-95" x1="-201.42" y1="696.44" x2="302.78" y2="731.69" xlink:href="#Degradado_sin_nombre_99"/><linearGradient id="Degradado_sin_nombre_99-96" x1="-206.06" y1="698.87" x2="297.55" y2="725.25" xlink:href="#Degradado_sin_nombre_99"/><linearGradient id="Degradado_sin_nombre_99-97" x1="-210.64" y1="701.27" x2="292.25" y2="718.83" xlink:href="#Degradado_sin_nombre_99"/><linearGradient id="Degradado_sin_nombre_99-98" x1="-215.14" y1="703.64" x2="286.87" y2="712.4" xlink:href="#Degradado_sin_nombre_99"/><linearGradient id="Degradado_sin_nombre_99-99" x1="-219.57" y1="705.99" x2="281.4" y2="705.99" xlink:href="#Degradado_sin_nombre_99"/></defs><path class="cls-1" d="M613.64,536,886.4,23a13.59,13.59,0,0,1,14.35-7l572.17,100.89A13.58,13.58,0,0,1,1484,128.39l80.86,575.35a13.58,13.58,0,0,1-7.5,14.09L1035.18,972.52a13.58,13.58,0,0,1-15.72-2.77L615.86,551.82A13.6,13.6,0,0,1,613.64,536Z" transform="translate(-167.3 -10.5)"/><path class="cls-2" d="M608,529,889.08,21.81a13.58,13.58,0,0,1,14.47-6.74L1472.8,125.72a13.58,13.58,0,0,1,10.89,11.67L1554.35,713a13.58,13.58,0,0,1-7.73,14L1021.05,972a13.59,13.59,0,0,1-15.67-3L609.89,544.85A13.58,13.58,0,0,1,608,529Z" transform="translate(-167.3 -10.5)"/><path class="cls-3" d="M602.41,522,891.81,20.76a13.59,13.59,0,0,1,14.58-6.49l566.15,120.34a13.56,13.56,0,0,1,10.68,11.86l60.5,575.63a13.56,13.56,0,0,1-8,13.82L1007,971.34A13.56,13.56,0,0,1,991.37,968L604.08,537.89A13.58,13.58,0,0,1,602.41,522Z" transform="translate(-167.3 -10.5)"/><path class="cls-4" d="M597,515.05,894.57,19.86a13.56,13.56,0,0,1,14.69-6.23l562.89,130a13.58,13.58,0,0,1,10.47,12L1533,731.13a13.59,13.59,0,0,1-8.23,13.68L993,970.54A13.61,13.61,0,0,1,977.42,967l-379-436A13.57,13.57,0,0,1,597,515.05Z" transform="translate(-167.3 -10.5)"/><path class="cls-5" d="M591.8,508.1l305.55-489a13.58,13.58,0,0,1,14.81-6l559.46,139.49a13.57,13.57,0,0,1,10.27,12.23l40.22,575.19a13.59,13.59,0,0,1-8.46,13.54L979,969.59a13.59,13.59,0,0,1-15.49-3.86L592.91,524A13.59,13.59,0,0,1,591.8,508.1Z" transform="translate(-167.3 -10.5)"/><path class="cls-6" d="M586.73,501.17,900.17,18.52a13.59,13.59,0,0,1,14.9-5.72l555.89,149a13.57,13.57,0,0,1,10,12.41l30.12,574.71a13.58,13.58,0,0,1-8.69,13.39L965.16,968.5a13.58,13.58,0,0,1-15.42-4.14L587.56,517.12A13.59,13.59,0,0,1,586.73,501.17Z" transform="translate(-167.3 -10.5)"/><path class="cls-7" d="M581.81,494.28,903,18.08a13.58,13.58,0,0,1,15-5.46l552.15,158.32a13.59,13.59,0,0,1,9.83,12.59l20,574a13.57,13.57,0,0,1-8.92,13.24L951.35,967.27A13.57,13.57,0,0,1,936,962.86L582.37,510.23A13.58,13.58,0,0,1,581.81,494.28Z" transform="translate(-167.3 -10.5)"/><path class="cls-8" d="M577.05,487.41,905.88,17.79A13.58,13.58,0,0,1,921,12.59l548.25,167.62a13.58,13.58,0,0,1,9.61,12.75l10,573.22a13.59,13.59,0,0,1-9.16,13.07L937.62,965.9a13.58,13.58,0,0,1-15.27-4.66l-345-457.86A13.58,13.58,0,0,1,577.05,487.41Z" transform="translate(-167.3 -10.5)"/><path class="cls-9" d="M572.44,480.58,908.76,17.66A13.61,13.61,0,0,1,924,12.72l544.19,176.82a13.58,13.58,0,0,1,9.39,12.92v572.2a13.58,13.58,0,0,1-9.39,12.92L924,964.4a13.62,13.62,0,0,1-15.19-4.93L572.44,496.54A13.57,13.57,0,0,1,572.44,480.58Z" transform="translate(-167.3 -10.5)"/><path class="cls-10" d="M568,473.78,911.67,17.68A13.58,13.58,0,0,1,926.94,13l540,185.93a13.6,13.6,0,0,1,9.16,13.08l-10,571a13.56,13.56,0,0,1-9.61,12.75l-546.15,167a13.55,13.55,0,0,1-15.09-5.19L567.7,489.74A13.57,13.57,0,0,1,568,473.78Z" transform="translate(-167.3 -10.5)"/><path class="cls-11" d="M563.67,467,914.59,17.85a13.59,13.59,0,0,1,15.35-4.4l535.63,195a13.57,13.57,0,0,1,8.92,13.24l-19.88,569.65a13.59,13.59,0,0,1-9.83,12.58L896.86,961a13.58,13.58,0,0,1-15-5.47L563.11,483A13.56,13.56,0,0,1,563.67,467Z" transform="translate(-167.3 -10.5)"/><path class="cls-12" d="M559.51,460.29l358-442.12A13.58,13.58,0,0,1,933,14l531.12,203.88a13.58,13.58,0,0,1,8.69,13.39L1443,799.43a13.59,13.59,0,0,1-10,12.41L883.42,959.08a13.57,13.57,0,0,1-14.9-5.72L558.67,476.24A13.59,13.59,0,0,1,559.51,460.29Z" transform="translate(-167.3 -10.5)"/><path class="cls-13" d="M555.5,453.62l365-435A13.6,13.6,0,0,1,936,14.79L1462.43,227.5a13.58,13.58,0,0,1,8.45,13.54l-39.6,566.42A13.6,13.6,0,0,1,1421,819.69L870.07,957.05a13.59,13.59,0,0,1-14.8-6L554.38,469.54A13.56,13.56,0,0,1,555.5,453.62Z" transform="translate(-167.3 -10.5)"/><path class="cls-14" d="M551.63,447,923.42,19.29A13.59,13.59,0,0,1,939,15.7l521.65,221.43a13.57,13.57,0,0,1,8.23,13.68l-49.39,564.55a13.57,13.57,0,0,1-10.48,12L856.82,954.89a13.58,13.58,0,0,1-14.7-6.24L550.24,462.89A13.57,13.57,0,0,1,551.63,447Z" transform="translate(-167.3 -10.5)"/><path class="cls-15" d="M547.92,440.4,926.38,20.07A13.59,13.59,0,0,1,942,16.75l516.7,230.06a13.58,13.58,0,0,1,8,13.82l-59.13,562.51A13.57,13.57,0,0,1,1396.88,835L843.64,952.6a13.56,13.56,0,0,1-14.59-6.5L546.25,456.28A13.58,13.58,0,0,1,547.92,440.4Z" transform="translate(-167.3 -10.5)"/><path class="cls-16" d="M544.35,433.87,929.34,21A13.58,13.58,0,0,1,945,18l511.62,238.57a13.58,13.58,0,0,1,7.74,14l-68.8,560.3a13.56,13.56,0,0,1-10.89,11.67L830.55,950.19a13.58,13.58,0,0,1-14.47-6.75L542.4,449.71A13.56,13.56,0,0,1,544.35,433.87Z" transform="translate(-167.3 -10.5)"/><path class="cls-17" d="M540.92,427.39,932.29,22.1A13.59,13.59,0,0,1,948,19.33l506.39,247a13.59,13.59,0,0,1,7.49,14.1l-78.41,557.92a13.59,13.59,0,0,1-11.09,11.49L817.55,947.65a13.59,13.59,0,0,1-14.35-7L538.7,443.2A13.56,13.56,0,0,1,540.92,427.39Z" transform="translate(-167.3 -10.5)"/><path class="cls-18" d="M537.63,421,935.24,23.35A13.59,13.59,0,0,1,951,20.85l501,255.28a13.58,13.58,0,0,1,7.24,14.23l-88,555.38A13.57,13.57,0,0,1,1360,857L804.65,945a13.59,13.59,0,0,1-14.23-7.25l-255.28-501A13.58,13.58,0,0,1,537.63,421Z" transform="translate(-167.3 -10.5)"/><path class="cls-19" d="M534.49,414.59,938.2,24.74A13.58,13.58,0,0,1,954,22.52L1449.52,286a13.59,13.59,0,0,1,7,14.35L1359.07,853a13.59,13.59,0,0,1-11.49,11.09l-555.74,78.1a13.58,13.58,0,0,1-14.1-7.49l-246-504.41A13.59,13.59,0,0,1,534.49,414.59Z" transform="translate(-167.3 -10.5)"/><path class="cls-20" d="M531.49,408.28l409.64-382A13.58,13.58,0,0,1,957,24.34l489.89,271.55a13.58,13.58,0,0,1,6.75,14.47L1346.73,860.18a13.57,13.57,0,0,1-11.68,10.89L779.12,939.33a13.57,13.57,0,0,1-14-7.74L528.44,424A13.61,13.61,0,0,1,531.49,408.28Z" transform="translate(-167.3 -10.5)"/><path class="cls-21" d="M528.63,402,944.05,28a13.58,13.58,0,0,1,15.88-1.67l484.12,279.51a13.59,13.59,0,0,1,6.5,14.58l-116.23,546.8a13.58,13.58,0,0,1-11.86,10.68L766.51,936.33a13.6,13.6,0,0,1-13.83-8L525.31,417.66A13.59,13.59,0,0,1,528.63,402Z" transform="translate(-167.3 -10.5)"/><path class="cls-22" d="M525.9,395.86,947,29.84a13.57,13.57,0,0,1,15.9-1.39l478.22,287.34a13.6,13.6,0,0,1,6.24,14.7L1321.83,874.1a13.61,13.61,0,0,1-12,10.48L754,933.2A13.6,13.6,0,0,1,740.3,925l-218-513.56A13.58,13.58,0,0,1,525.9,395.86Z" transform="translate(-167.3 -10.5)"/><path class="cls-23" d="M523.31,389.75,949.86,31.84a13.59,13.59,0,0,1,15.92-1.12L1438,325.79a13.58,13.58,0,0,1,6,14.8L1309.26,880.86A13.57,13.57,0,0,1,1297,891.13L741.58,930A13.57,13.57,0,0,1,728,921.51L519.45,405.24A13.6,13.6,0,0,1,523.31,389.75Z" transform="translate(-167.3 -10.5)"/><path class="cls-24" d="M520.86,383.71,952.73,34a13.59,13.59,0,0,1,15.95-.84l466.05,302.66a13.59,13.59,0,0,1,5.73,14.91L1296.63,887.5a13.61,13.61,0,0,1-12.41,10L729.27,926.63a13.58,13.58,0,0,1-13.39-8.69L516.73,399.13A13.58,13.58,0,0,1,520.86,383.71Z" transform="translate(-167.3 -10.5)"/><path class="cls-25" d="M518.54,377.74l437-341.46a13.59,13.59,0,0,1,16-.55l459.79,310.13a13.59,13.59,0,0,1,5.47,15L1283.92,894a13.59,13.59,0,0,1-12.58,9.83L717.06,923.18a13.58,13.58,0,0,1-13.23-8.93L514.14,393.08A13.57,13.57,0,0,1,518.54,377.74Z" transform="translate(-167.3 -10.5)"/><path class="cls-26" d="M516.35,371.84,958.41,38.73a13.57,13.57,0,0,1,16-.28l453.41,317.48A13.59,13.59,0,0,1,1433,371L1271.15,900.35A13.58,13.58,0,0,1,1258.4,910L705,919.62a13.56,13.56,0,0,1-13.08-9.15L511.68,387.11A13.59,13.59,0,0,1,516.35,371.84Z" transform="translate(-167.3 -10.5)"/><path class="cls-27" d="M514.29,366,961.2,41.32a13.58,13.58,0,0,1,16,0L1424.08,366a13.57,13.57,0,0,1,4.94,15.19L1258.31,906.59a13.58,13.58,0,0,1-12.92,9.38H693a13.59,13.59,0,0,1-12.92-9.38L509.36,381.21A13.58,13.58,0,0,1,514.29,366Z" transform="translate(-167.3 -10.5)"/><path class="cls-28" d="M512.36,360.28,964,44.06a13.58,13.58,0,0,1,16,.28l440.29,331.79a13.56,13.56,0,0,1,4.67,15.27L1245.42,912.68a13.58,13.58,0,0,1-13.09,9.15L681.1,912.21a13.58,13.58,0,0,1-12.75-9.6L507.16,375.38A13.59,13.59,0,0,1,512.36,360.28Z" transform="translate(-167.3 -10.5)"/><path class="cls-29" d="M510.56,354.62,966.71,46.94a13.58,13.58,0,0,1,15.95.56l433.58,338.75a13.59,13.59,0,0,1,4.41,15.35l-188.19,517a13.58,13.58,0,0,1-13.24,8.93l-549.88-19.2a13.58,13.58,0,0,1-12.58-9.83L505.1,369.62A13.56,13.56,0,0,1,510.56,354.62Z" transform="translate(-167.3 -10.5)"/><path class="cls-30" d="M508.88,349,969.41,50a13.57,13.57,0,0,1,15.94.84L1412.1,396.38a13.58,13.58,0,0,1,4.13,15.42L1219.44,924.45a13.58,13.58,0,0,1-13.39,8.69L657.69,904.41a13.59,13.59,0,0,1-12.41-10L503.16,364A13.57,13.57,0,0,1,508.88,349Z" transform="translate(-167.3 -10.5)"/><path class="cls-31" d="M507.32,343.55,972.07,53.15A13.59,13.59,0,0,1,988,54.26l419.81,352.26a13.6,13.6,0,0,1,3.86,15.49l-205.3,508.12a13.58,13.58,0,0,1-13.53,8.46L646.15,900.36a13.57,13.57,0,0,1-12.23-10.26L501.34,358.36A13.6,13.6,0,0,1,507.32,343.55Z" transform="translate(-167.3 -10.5)"/><path class="cls-32" d="M505.89,338.15,974.69,56.46a13.59,13.59,0,0,1,15.91,1.39l412.76,358.81a13.57,13.57,0,0,1,3.59,15.56L1193.26,935.67a13.6,13.6,0,0,1-13.69,8.22L634.73,896.22a13.57,13.57,0,0,1-12.05-10.48l-123-532.9A13.58,13.58,0,0,1,505.89,338.15Z" transform="translate(-167.3 -10.5)"/><path class="cls-33" d="M504.58,332.83,977.27,59.92a13.58,13.58,0,0,1,15.88,1.67l405.63,365.22a13.59,13.59,0,0,1,3.31,15.62l-222,498.63a13.58,13.58,0,0,1-13.82,8L623.43,892a13.58,13.58,0,0,1-11.87-10.68L498.08,347.42A13.59,13.59,0,0,1,504.58,332.83Z" transform="translate(-167.3 -10.5)"/><path class="cls-34" d="M503.38,327.6,979.81,63.52a13.56,13.56,0,0,1,15.84,1.94L1394,437a13.56,13.56,0,0,1,3,15.67L1166.87,946.32a13.58,13.58,0,0,1-14,7.74L612.25,887.68a13.58,13.58,0,0,1-11.68-10.89L496.63,342.07A13.59,13.59,0,0,1,503.38,327.6Z" transform="translate(-167.3 -10.5)"/><path class="cls-35" d="M502.3,322.47l480-255.21a13.56,13.56,0,0,1,15.81,2.22l391.05,377.63a13.58,13.58,0,0,1,2.78,15.72L1153.61,951.44a13.58,13.58,0,0,1-14.09,7.5L601.19,883.28a13.59,13.59,0,0,1-11.49-11.1L495.3,336.82A13.58,13.58,0,0,1,502.3,322.47Z" transform="translate(-167.3 -10.5)"/><path class="cls-36" d="M501.33,317.43,984.72,71.13a13.58,13.58,0,0,1,15.77,2.5l383.63,383.62a13.59,13.59,0,0,1,2.5,15.77l-246.3,483.39a13.62,13.62,0,0,1-14.23,7.26L590.25,878.79A13.56,13.56,0,0,1,579,867.5L494.09,331.66A13.59,13.59,0,0,1,501.33,317.43Z" transform="translate(-167.3 -10.5)"/><path class="cls-37" d="M500.48,312.49,987.11,75.15a13.59,13.59,0,0,1,15.73,2.77l376.1,389.47a13.58,13.58,0,0,1,2.22,15.81L1127,961.25a13.58,13.58,0,0,1-14.35,7l-533.2-94a13.58,13.58,0,0,1-11.09-11.49L493,326.59A13.58,13.58,0,0,1,500.48,312.49Z" transform="translate(-167.3 -10.5)"/><path class="cls-38" d="M499.74,307.65,989.44,79.3a13.58,13.58,0,0,1,15.67,3l368.51,395.17a13.59,13.59,0,0,1,1.94,15.85l-262,472.58a13.6,13.6,0,0,1-14.48,6.75L568.74,869.59a13.58,13.58,0,0,1-10.89-11.68L492,321.61A13.58,13.58,0,0,1,499.74,307.65Z" transform="translate(-167.3 -10.5)"/><path class="cls-39" d="M499.1,302.91,991.71,83.58a13.59,13.59,0,0,1,15.62,3.32l360.81,400.73a13.58,13.58,0,0,1,1.67,15.88l-269.61,467a13.57,13.57,0,0,1-14.59,6.49L558.17,864.87A13.56,13.56,0,0,1,547.49,853L491.12,316.73A13.58,13.58,0,0,1,499.1,302.91Z" transform="translate(-167.3 -10.5)"/><path class="cls-40" d="M498.58,298.26,993.92,88a13.58,13.58,0,0,1,15.56,3.59l353,406.13a13.57,13.57,0,0,1,1.4,15.91L1086.76,974.89a13.59,13.59,0,0,1-14.7,6.24l-524.33-121A13.58,13.58,0,0,1,537.26,848L490.35,312A13.59,13.59,0,0,1,498.58,298.26Z" transform="translate(-167.3 -10.5)"/><path class="cls-41" d="M498.15,293.73,996.07,92.55a13.6,13.6,0,0,1,15.5,3.87L1356.76,507.8a13.57,13.57,0,0,1,1.12,15.93L1073.3,979.16a13.6,13.6,0,0,1-14.81,6L537.42,855.22A13.6,13.6,0,0,1,527.15,843L489.69,307.27A13.59,13.59,0,0,1,498.15,293.73Z" transform="translate(-167.3 -10.5)"/><path class="cls-42" d="M497.83,289.3,998.17,97.24a13.56,13.56,0,0,1,15.41,4.13l337.28,416.49a13.6,13.6,0,0,1,.84,15.95L1059.8,983.27a13.57,13.57,0,0,1-14.9,5.73L527.23,850.29a13.59,13.59,0,0,1-10.05-12.41l-28-535.19A13.57,13.57,0,0,1,497.83,289.3Z" transform="translate(-167.3 -10.5)"/><path class="cls-43" d="M497.61,285l502.58-182.92a13.59,13.59,0,0,1,15.35,4.4L1344.81,527.9a13.59,13.59,0,0,1,.56,16L1046.29,987.25a13.58,13.58,0,0,1-15,5.46L517.18,845.29a13.57,13.57,0,0,1-9.83-12.58l-18.67-534.5A13.59,13.59,0,0,1,497.61,285Z" transform="translate(-167.3 -10.5)"/><path class="cls-44" d="M497.49,280.75,1002.14,107a13.58,13.58,0,0,1,15.27,4.67l321.2,426.25a13.57,13.57,0,0,1,.28,16L1032.76,991.09a13.59,13.59,0,0,1-15.09,5.19l-510.42-156a13.6,13.6,0,0,1-9.6-12.76l-9.32-533.65A13.59,13.59,0,0,1,497.49,280.75Z" transform="translate(-167.3 -10.5)"/><path class="cls-45" d="M497.46,276.65,1004,112.06a13.58,13.58,0,0,1,15.19,4.93L1332.28,547.9a13.57,13.57,0,0,1,0,16L1019.21,994.77A13.57,13.57,0,0,1,1004,999.7L497.46,835.11a13.56,13.56,0,0,1-9.38-12.91V289.57A13.57,13.57,0,0,1,497.46,276.65Z" transform="translate(-167.3 -10.5)"/><path class="cls-46" d="M497.53,272.65l508.3-155.4a13.59,13.59,0,0,1,15.1,5.2l304.87,435.4a13.57,13.57,0,0,1-.28,16l-319.88,424.5a13.6,13.6,0,0,1-15.26,4.67l-502.58-173a13.6,13.6,0,0,1-9.16-13.09l9.28-531.45A13.58,13.58,0,0,1,497.53,272.65Z" transform="translate(-167.3 -10.5)"/><path class="cls-47" d="M497.69,268.77l509.88-146.21a13.61,13.61,0,0,1,15,5.46l296.61,439.75a13.58,13.58,0,0,1-.56,16l-326.56,418a13.59,13.59,0,0,1-15.35,4.4L478.27,824.7a13.59,13.59,0,0,1-8.93-13.24l18.52-530.11A13.57,13.57,0,0,1,497.69,268.77Z" transform="translate(-167.3 -10.5)"/><path class="cls-48" d="M497.93,265l511.3-137a13.58,13.58,0,0,1,14.9,5.72l288.3,443.94a13.57,13.57,0,0,1-.83,15.94L978.48,1005a13.59,13.59,0,0,1-15.43,4.14L468.88,819.41a13.58,13.58,0,0,1-8.7-13.39l27.7-528.61A13.59,13.59,0,0,1,497.93,265Z" transform="translate(-167.3 -10.5)"/><path class="cls-49" d="M498.27,261.35l512.54-127.79a13.58,13.58,0,0,1,14.81,6l279.91,448a13.55,13.55,0,0,1-1.11,15.92L964.88,1008.09a13.58,13.58,0,0,1-15.49,3.86L459.62,814.06a13.56,13.56,0,0,1-8.46-13.53L488,273.58A13.58,13.58,0,0,1,498.27,261.35Z" transform="translate(-167.3 -10.5)"/><path class="cls-50" d="M498.69,257.81l513.62-118.58a13.59,13.59,0,0,1,14.7,6.24L1298.5,597.32a13.57,13.57,0,0,1-1.39,15.9L951.28,1011.05a13.57,13.57,0,0,1-15.56,3.6l-485.23-206A13.59,13.59,0,0,1,442.27,795l45.94-525.13A13.58,13.58,0,0,1,498.69,257.81Z" transform="translate(-167.3 -10.5)"/><path class="cls-51" d="M499.19,254.4,1013.73,145a13.59,13.59,0,0,1,14.59,6.49l263,455.56a13.6,13.6,0,0,1-1.67,15.88l-352,390.92a13.59,13.59,0,0,1-15.62,3.33l-480.56-214a13.57,13.57,0,0,1-8-13.82l55-523.16A13.56,13.56,0,0,1,499.19,254.4Z" transform="translate(-167.3 -10.5)"/><path class="cls-52" d="M499.77,251.1l515.3-100.16a13.58,13.58,0,0,1,14.47,6.74L1284,616.8a13.61,13.61,0,0,1-1.94,15.85l-358,383.92a13.59,13.59,0,0,1-15.68,3L432.65,797.77a13.59,13.59,0,0,1-7.74-14l64-521A13.59,13.59,0,0,1,499.77,251.1Z" transform="translate(-167.3 -10.5)"/><path class="cls-53" d="M500.43,247.92l515.88-91a13.57,13.57,0,0,1,14.35,7l245.93,462.52a13.6,13.6,0,0,1-2.22,15.81L910.48,1019.11a13.58,13.58,0,0,1-15.72,2.77L423.93,792.25a13.58,13.58,0,0,1-7.49-14.1l72.9-518.74A13.59,13.59,0,0,1,500.43,247.92Z" transform="translate(-167.3 -10.5)"/><path class="cls-54" d="M501.17,244.87l516.3-81.78a13.57,13.57,0,0,1,14.22,7.25L1269,636.1a13.58,13.58,0,0,1-2.5,15.77L896.89,1021.51a13.57,13.57,0,0,1-15.77,2.49L415.35,786.69a13.59,13.59,0,0,1-7.25-14.23l81.78-516.3A13.58,13.58,0,0,1,501.17,244.87Z" transform="translate(-167.3 -10.5)"/><path class="cls-55" d="M502,241.93l516.56-72.59a13.58,13.58,0,0,1,14.1,7.49l228.67,468.85a13.57,13.57,0,0,1-2.78,15.72L883.3,1023.76a13.58,13.58,0,0,1-15.81,2.23L406.91,781.09a13.58,13.58,0,0,1-7-14.35L490.49,253A13.59,13.59,0,0,1,502,241.93Z" transform="translate(-167.3 -10.5)"/><path class="cls-56" d="M502.86,239.13l516.66-63.44a13.59,13.59,0,0,1,14,7.74l220,471.77a13.59,13.59,0,0,1-3,15.67l-380.7,355a13.6,13.6,0,0,1-15.85,1.95L398.6,775.46A13.57,13.57,0,0,1,391.86,761l99.32-511A13.57,13.57,0,0,1,502.86,239.13Z" transform="translate(-167.3 -10.5)"/><path class="cls-57" d="M503.81,236.44l516.59-54.29a13.58,13.58,0,0,1,13.83,8L1245.5,664.66a13.58,13.58,0,0,1-3.31,15.62l-386,347.58a13.57,13.57,0,0,1-15.87,1.66L390.44,769.8a13.58,13.58,0,0,1-6.5-14.58l108-508.09A13.58,13.58,0,0,1,503.81,236.44Z" transform="translate(-167.3 -10.5)"/><path class="cls-58" d="M504.82,233.89l516.37-45.18a13.6,13.6,0,0,1,13.69,8.22l202.53,477.14a13.58,13.58,0,0,1-3.59,15.56l-391.2,340.06a13.57,13.57,0,0,1-15.9,1.39l-444.31-267a13.58,13.58,0,0,1-6.24-14.69l116.6-505.06A13.59,13.59,0,0,1,504.82,233.89Z" transform="translate(-167.3 -10.5)"/><path class="cls-59" d="M505.9,231.46l516-36.09a13.58,13.58,0,0,1,13.53,8.47l193.77,479.58a13.59,13.59,0,0,1-3.87,15.49L829.09,1031.38a13.55,13.55,0,0,1-15.92,1.12L374.52,758.4a13.57,13.57,0,0,1-6-14.8L493.67,241.72A13.57,13.57,0,0,1,505.9,231.46Z" transform="translate(-167.3 -10.5)"/><path class="cls-60" d="M507,229.15l515.44-27a13.58,13.58,0,0,1,13.39,8.7l185,481.86a13.56,13.56,0,0,1-4.14,15.42L815.59,1032.94a13.59,13.59,0,0,1-16,.84L366.77,752.66a13.55,13.55,0,0,1-5.72-14.9L494.63,239.2A13.61,13.61,0,0,1,507,229.15Z" transform="translate(-167.3 -10.5)"/><path class="cls-61" d="M508.24,227,1023,209a13.59,13.59,0,0,1,13.24,8.93l176.15,484a13.56,13.56,0,0,1-4.39,15.34L802.1,1034.35a13.56,13.56,0,0,1-16,.56l-427-288a13.58,13.58,0,0,1-5.46-15l142-495.09A13.57,13.57,0,0,1,508.24,227Z" transform="translate(-167.3 -10.5)"/><path class="cls-62" d="M509.5,224.94l513.86-9a13.56,13.56,0,0,1,13.08,9.15l167.33,486a13.57,13.57,0,0,1-4.67,15.26L788.64,1035.64a13.59,13.59,0,0,1-16,.28l-421-294.79a13.58,13.58,0,0,1-5.2-15.1L496.75,234.54A13.57,13.57,0,0,1,509.5,224.94Z" transform="translate(-167.3 -10.5)"/><path class="cls-63" d="M510.81,223h512.85a13.57,13.57,0,0,1,12.91,9.39l158.48,487.74a13.57,13.57,0,0,1-4.94,15.19l-414.9,301.44a13.57,13.57,0,0,1-16,0L344.35,735.34a13.59,13.59,0,0,1-4.94-15.19L497.89,232.41A13.58,13.58,0,0,1,510.81,223Z" transform="translate(-167.3 -10.5)"/><path class="cls-64" d="M512.17,221.24l511.67,8.93a13.58,13.58,0,0,1,12.75,9.61l149.62,489.39a13.58,13.58,0,0,1-5.19,15.09L761.81,1037.79a13.59,13.59,0,0,1-16-.28l-408.7-308a13.58,13.58,0,0,1-4.67-15.26L499.09,230.4A13.59,13.59,0,0,1,512.17,221.24Z" transform="translate(-167.3 -10.5)"/><path class="cls-65" d="M513.58,219.59l510.34,17.82a13.57,13.57,0,0,1,12.58,9.83L1177.25,738.1a13.6,13.6,0,0,1-5.45,15L748.45,1038.66a13.58,13.58,0,0,1-16-.56L330.09,723.71a13.58,13.58,0,0,1-4.4-15.34L500.34,228.51A13.59,13.59,0,0,1,513.58,219.59Z" transform="translate(-167.3 -10.5)"/><path class="cls-66" d="M515,218.07l508.85,26.66a13.6,13.6,0,0,1,12.41,10.05L1168.18,747a13.58,13.58,0,0,1-5.72,14.9L735.11,1039.39a13.57,13.57,0,0,1-15.94-.83l-396-320.67A13.57,13.57,0,0,1,319,702.47L501.65,226.76A13.58,13.58,0,0,1,515,218.07Z" transform="translate(-167.3 -10.5)"/><path class="cls-67" d="M516.54,216.68l507.21,35.47A13.57,13.57,0,0,1,1036,262.41l123,493.35a13.59,13.59,0,0,1-6,14.8L721.82,1040a13.59,13.59,0,0,1-15.93-1.12L316.39,712.06a13.6,13.6,0,0,1-3.86-15.49L503,225.14A13.58,13.58,0,0,1,516.54,216.68Z" transform="translate(-167.3 -10.5)"/><path class="cls-68" d="M518.09,215.42l505.42,44.22a13.6,13.6,0,0,1,12,10.48l114.12,494.35a13.56,13.56,0,0,1-6.24,14.69L708.56,1040.47a13.59,13.59,0,0,1-15.9-1.39L309.75,706.23a13.6,13.6,0,0,1-3.59-15.57l198.24-467A13.59,13.59,0,0,1,518.09,215.42Z" transform="translate(-167.3 -10.5)"/><path class="cls-69" d="M519.67,214.3l503.48,52.92A13.57,13.57,0,0,1,1035,277.9l105.26,495.19a13.6,13.6,0,0,1-6.49,14.59L695.35,1040.81a13.58,13.58,0,0,1-15.88-1.68L303.25,700.39a13.6,13.6,0,0,1-3.32-15.62L505.84,222.28A13.6,13.6,0,0,1,519.67,214.3Z" transform="translate(-167.3 -10.5)"/><path class="cls-70" d="M521.29,213.32l501.39,61.56a13.57,13.57,0,0,1,11.67,10.89l96.39,495.87a13.58,13.58,0,0,1-6.74,14.47L682.18,1041a13.58,13.58,0,0,1-15.85-1.94L296.89,694.55a13.56,13.56,0,0,1-3.05-15.67L507.33,221.06A13.56,13.56,0,0,1,521.29,213.32Z" transform="translate(-167.3 -10.5)"/><path class="cls-71" d="M522.94,212.46l499.15,70.15a13.59,13.59,0,0,1,11.49,11.1L1121.1,790.1a13.56,13.56,0,0,1-7,14.35L669.05,1041.09a13.58,13.58,0,0,1-15.81-2.22L290.66,688.72A13.58,13.58,0,0,1,287.89,673l221-453A13.59,13.59,0,0,1,522.94,212.46Z" transform="translate(-167.3 -10.5)"/><path class="cls-72" d="M524.63,211.75l496.76,78.68a13.58,13.58,0,0,1,11.3,11.29l78.67,496.76a13.58,13.58,0,0,1-7.24,14.23L656,1041a13.58,13.58,0,0,1-15.77-2.49L284.57,682.9a13.58,13.58,0,0,1-2.5-15.77L510.41,219A13.56,13.56,0,0,1,524.63,211.75Z" transform="translate(-167.3 -10.5)"/><path class="cls-73" d="M526.35,211.16l494.23,87.15a13.59,13.59,0,0,1,11.09,11.49l69.85,497a13.58,13.58,0,0,1-7.5,14.09L643,1040.87a13.61,13.61,0,0,1-15.73-2.78l-348.62-361a13.6,13.6,0,0,1-2.22-15.81L512,218.16A13.59,13.59,0,0,1,526.35,211.16Z" transform="translate(-167.3 -10.5)"/><path class="cls-74" d="M528.09,210.72l491.56,95.55a13.56,13.56,0,0,1,10.88,11.67l61,497a13.58,13.58,0,0,1-7.73,14L630,1040.56a13.56,13.56,0,0,1-15.67-3L272.8,671.28a13.56,13.56,0,0,1-1.95-15.84l242.77-438A13.58,13.58,0,0,1,528.09,210.72Z" transform="translate(-167.3 -10.5)"/><path class="cls-75" d="M529.86,210.41,1018.6,314.29a13.57,13.57,0,0,1,10.68,11.86l52.23,496.93a13.58,13.58,0,0,1-8,13.82L617.07,1040.13a13.58,13.58,0,0,1-15.62-3.32L267.11,665.5a13.58,13.58,0,0,1-1.66-15.88L515.27,216.9A13.57,13.57,0,0,1,529.86,210.41Z" transform="translate(-167.3 -10.5)"/><path class="cls-76" d="M531.65,210.23l485.78,112.15a13.6,13.6,0,0,1,10.48,12.05l43.45,496.66a13.6,13.6,0,0,1-8.23,13.69l-458.92,194.8a13.57,13.57,0,0,1-15.56-3.6L261.57,659.72a13.57,13.57,0,0,1-1.39-15.9L517,216.47A13.58,13.58,0,0,1,531.65,210.23Z" transform="translate(-167.3 -10.5)"/><path class="cls-77" d="M533.46,210.19l482.68,120.35a13.57,13.57,0,0,1,10.26,12.23L1061.1,839a13.57,13.57,0,0,1-8.45,13.53L591.41,1038.91a13.59,13.59,0,0,1-15.49-3.86L256.16,654A13.55,13.55,0,0,1,255,638L518.65,216.17A13.6,13.6,0,0,1,533.46,210.19Z" transform="translate(-167.3 -10.5)"/><path class="cls-78" d="M535.28,210.29l479.45,128.46a13.59,13.59,0,0,1,10,12.41l26,495.68a13.58,13.58,0,0,1-8.7,13.39L578.67,1038.11a13.58,13.58,0,0,1-15.42-4.13L250.88,648.24a13.59,13.59,0,0,1-.84-16L520.38,216A13.55,13.55,0,0,1,535.28,210.29Z" transform="translate(-167.3 -10.5)"/><path class="cls-79" d="M537.13,210.52,1013.2,347a13.58,13.58,0,0,1,9.83,12.58l17.28,495a13.57,13.57,0,0,1-8.92,13.23L566,1037.2a13.57,13.57,0,0,1-15.34-4.41L245.73,642.53a13.59,13.59,0,0,1-.55-16L522.12,216A13.57,13.57,0,0,1,537.13,210.52Z" transform="translate(-167.3 -10.5)"/><path class="cls-80" d="M539,210.88l472.57,144.48a13.59,13.59,0,0,1,9.61,12.75l8.62,494.09a13.58,13.58,0,0,1-9.16,13.08L553.38,1036.16a13.58,13.58,0,0,1-15.27-4.67L240.72,636.84a13.59,13.59,0,0,1-.28-16l283.44-404.8A13.59,13.59,0,0,1,539,210.88Z" transform="translate(-167.3 -10.5)"/><path class="cls-81" d="M540.84,211.39l468.93,152.36a13.58,13.58,0,0,1,9.39,12.92V869.73a13.59,13.59,0,0,1-9.39,12.92L540.84,1035a13.55,13.55,0,0,1-15.18-4.94L235.84,631.18a13.57,13.57,0,0,1,0-16l289.82-398.9A13.56,13.56,0,0,1,540.84,211.39Z" transform="translate(-167.3 -10.5)"/><path class="cls-82" d="M542.71,212l465.16,160.17a13.59,13.59,0,0,1,9.16,13.08l-8.59,491.89a13.58,13.58,0,0,1-9.61,12.75L528.37,1033.75a13.6,13.6,0,0,1-15.1-5.2l-282.18-403a13.59,13.59,0,0,1,.28-16l296.07-392.9A13.59,13.59,0,0,1,542.71,212Z" transform="translate(-167.3 -10.5)"/><path class="cls-83" d="M544.58,212.8l461.27,167.88a13.58,13.58,0,0,1,8.92,13.24L997.65,884.48a13.59,13.59,0,0,1-9.83,12.58L516,1032.37a13.57,13.57,0,0,1-15-5.47L226.47,620a13.59,13.59,0,0,1,.56-16L529.24,217.2A13.56,13.56,0,0,1,544.58,212.8Z" transform="translate(-167.3 -10.5)"/><path class="cls-84" d="M546.46,213.71l457.23,175.51a13.58,13.58,0,0,1,8.7,13.39l-25.63,489.1a13.57,13.57,0,0,1-10,12.4L503.64,1030.88a13.61,13.61,0,0,1-14.91-5.72L222,614.4a13.59,13.59,0,0,1,.84-15.94L531,217.84A13.58,13.58,0,0,1,546.46,213.71Z" transform="translate(-167.3 -10.5)"/><path class="cls-85" d="M548.34,214.75l453.08,183.06a13.59,13.59,0,0,1,8.46,13.54L975.8,898.82a13.58,13.58,0,0,1-10.27,12.23L491.38,1029.27a13.58,13.58,0,0,1-14.8-6l-259-414.41A13.6,13.6,0,0,1,218.74,593L532.85,218.61A13.56,13.56,0,0,1,548.34,214.75Z" transform="translate(-167.3 -10.5)"/><path class="cls-86" d="M550.21,215.93,999,406.43a13.59,13.59,0,0,1,8.22,13.69L964.75,905.83a13.57,13.57,0,0,1-10.48,12L479.2,1027.56a13.56,13.56,0,0,1-14.69-6.24L213.39,603.39a13.57,13.57,0,0,1,1.39-15.9l319.87-368A13.59,13.59,0,0,1,550.21,215.93Z" transform="translate(-167.3 -10.5)"/><path class="cls-87" d="M552.08,217.24,996.49,415.1a13.58,13.58,0,0,1,8,13.83l-50.84,483.8a13.58,13.58,0,0,1-10.69,11.86L467.1,1025.74a13.59,13.59,0,0,1-14.58-6.49L209.28,598A13.6,13.6,0,0,1,211,582.07L536.46,220.56A13.6,13.6,0,0,1,552.08,217.24Z" transform="translate(-167.3 -10.5)"/><path class="cls-88" d="M553.94,218.68l439.9,205.13a13.58,13.58,0,0,1,7.73,14L942.42,919.53a13.57,13.57,0,0,1-10.88,11.67l-476.46,92.61a13.58,13.58,0,0,1-14.47-6.74L205.3,592.55a13.58,13.58,0,0,1,1.95-15.84l331-355A13.59,13.59,0,0,1,553.94,218.68Z" transform="translate(-167.3 -10.5)"/><path class="cls-89" d="M555.79,220.26,991.05,432.55a13.58,13.58,0,0,1,7.5,14.1l-67.4,479.56a13.59,13.59,0,0,1-11.09,11.48l-476.91,84.1a13.58,13.58,0,0,1-14.35-7L201.45,587.2a13.56,13.56,0,0,1,2.22-15.81L540.07,223A13.57,13.57,0,0,1,555.79,220.26Z" transform="translate(-167.3 -10.5)"/><path class="cls-90" d="M557.63,222,988.14,441.33a13.59,13.59,0,0,1,7.25,14.23L919.8,932.78a13.56,13.56,0,0,1-11.29,11.29l-477.22,75.59a13.57,13.57,0,0,1-14.22-7.26L197.71,581.9a13.59,13.59,0,0,1,2.5-15.77L541.86,224.48A13.59,13.59,0,0,1,557.63,222Z" transform="translate(-167.3 -10.5)"/><path class="cls-91" d="M559.46,223.82,985.11,450.14a13.59,13.59,0,0,1,7,14.35L908.39,939.24a13.59,13.59,0,0,1-11.48,11.09l-477.38,67.09a13.57,13.57,0,0,1-14.1-7.5L194.1,576.64a13.58,13.58,0,0,1,2.77-15.72L543.65,226A13.59,13.59,0,0,1,559.46,223.82Z" transform="translate(-167.3 -10.5)"/><path class="cls-92" d="M561.27,225.8,981.93,459a13.58,13.58,0,0,1,6.75,14.47L896.91,945.58a13.58,13.58,0,0,1-11.68,10.89l-477.39,58.62a13.59,13.59,0,0,1-14-7.74L190.61,571.44a13.59,13.59,0,0,1,3-15.67l351.76-328A13.59,13.59,0,0,1,561.27,225.8Z" transform="translate(-167.3 -10.5)"/><path class="cls-93" d="M563.06,227.91,978.64,467.84a13.62,13.62,0,0,1,6.5,14.59L885.36,951.82A13.58,13.58,0,0,1,873.5,962.5l-477.25,50.16a13.57,13.57,0,0,1-13.83-8L187.24,566.29a13.6,13.6,0,0,1,3.32-15.62L547.18,229.58A13.58,13.58,0,0,1,563.06,227.91Z" transform="translate(-167.3 -10.5)"/><path class="cls-94" d="M564.82,230.15,975.21,476.73a13.61,13.61,0,0,1,6.24,14.7l-107.7,466.5a13.6,13.6,0,0,1-12,10.48l-476.95,41.73a13.59,13.59,0,0,1-13.69-8.23L184,561.2a13.58,13.58,0,0,1,3.59-15.56l361.34-314.1A13.57,13.57,0,0,1,564.82,230.15Z" transform="translate(-167.3 -10.5)"/><path class="cls-95" d="M566.57,232.52,971.66,485.65a13.58,13.58,0,0,1,6,14.8L862.08,963.94a13.58,13.58,0,0,1-12.23,10.26l-476.51,33.32a13.59,13.59,0,0,1-13.54-8.46L180.86,556.16a13.57,13.57,0,0,1,3.86-15.49l365.92-307A13.59,13.59,0,0,1,566.57,232.52Z" transform="translate(-167.3 -10.5)"/><path class="cls-96" d="M568.28,235,968,494.58a13.57,13.57,0,0,1,5.73,14.9L850.35,969.82a13.59,13.59,0,0,1-12.41,10L362,1004.81a13.58,13.58,0,0,1-13.39-8.7L177.84,551.19A13.58,13.58,0,0,1,182,535.77L552.34,235.85A13.59,13.59,0,0,1,568.28,235Z" transform="translate(-167.3 -10.5)"/><path class="cls-97" d="M570,237.64,964.16,503.52a13.57,13.57,0,0,1,5.46,15L838.56,975.58A13.58,13.58,0,0,1,826,985.41L350.79,1002a13.58,13.58,0,0,1-13.23-8.93L174.94,546.28a13.57,13.57,0,0,1,4.4-15.35L554,238.2A13.56,13.56,0,0,1,570,237.64Z" transform="translate(-167.3 -10.5)"/><path class="cls-98" d="M571.63,240.39l388.59,272.1a13.59,13.59,0,0,1,5.2,15.09L826.72,981.23A13.58,13.58,0,0,1,814,990.84l-474.3,8.28A13.57,13.57,0,0,1,326.59,990L172.15,541.43a13.57,13.57,0,0,1,4.66-15.27L555.67,240.67A13.59,13.59,0,0,1,571.63,240.39Z" transform="translate(-167.3 -10.5)"/><path class="cls-99" d="M573.26,243.28,956.14,521.46a13.57,13.57,0,0,1,4.94,15.19L814.83,986.76a13.57,13.57,0,0,1-12.92,9.38H328.64a13.57,13.57,0,0,1-12.92-9.38L169.47,536.65a13.58,13.58,0,0,1,4.93-15.19L557.29,243.28A13.58,13.58,0,0,1,573.26,243.28Z" transform="translate(-167.3 -10.5)"/></svg>